<svg id="SvgjsSvg1001" width="288" height="288" xmlns="http://www.w3.org/2000/svg" version="1.1" xmlns:xlink="http://www.w3.org/1999/xlink" xmlns:svgjs="http://svgjs.com/svgjs"><defs id="SvgjsDefs1002"></defs><g id="SvgjsG1008" transform="matrix(0.9167,0,0,0.9167,11.495400000000004,11.495400000000004)"><svg xmlns="http://www.w3.org/2000/svg" viewBox="0 0 24 24" width="288" height="288"><path d="M11.5 0C5.159 0 0 5.159 0 11.5S5.159 23 11.5 23 23 17.841 23 11.5 17.841 0 11.5 0zm0 3C13.43 3 15 4.57 15 6.5S13.43 10 11.5 10 8 8.43 8 6.5 9.57 3 11.5 3zm6 15h-12a.5.5 0 0 1-.5-.5c0-3.584 2.916-6.5 6.5-6.5s6.5 2.916 6.5 6.5a.5.5 0 0 1-.5.5z" fill="#2d3748" class="color000 svgShape"></path></svg></g></svg>